<svg width="60" height="60" viewBox="0 0 60 60" xmlns="http://www.w3.org/2000/svg" fill="#080b0c">
  <path d="M5 10 C7 8, 9 8, 11 10 L30 27 L49 10 C51 8, 53 8, 55 10 C57 12, 57 14, 55 16 L32 37 C30.5 38.5, 29.5 38.5, 28 37 L5 16 C3 14, 3 12, 5 10 Z" transform="translate(0, -1) scale(0.33)" />
  <path d="M5 10 C7 8, 9 8, 11 10 L30 27 L49 10 C51 8, 53 8, 55 10 C57 12, 57 14, 55 16 L32 37 C30.5 38.5, 29.5 38.5, 28 37 L5 16 C3 14, 3 12, 5 10 Z" transform="translate(0, 6) scale(0.33)" />
  <path d="M5 10 C7 8, 9 8, 11 10 L30 27 L49 10 C51 8, 53 8, 55 10 C57 12, 57 14, 55 16 L32 37 C30.5 38.5, 29.5 38.5, 28 37 L5 16 C3 14, 3 12, 5 10 Z" transform="translate(0, 13) scale(0.33)" />
</svg>